<svg width="44" height="36" viewBox="0 0 44 36" fill="none" xmlns="http://www.w3.org/2000/svg">
<path fill-rule="evenodd" clip-rule="evenodd" d="M0.666656 5C0.666656 2.60676 2.60676 0.666664 4.99999 0.666664H39C41.3932 0.666664 43.3333 2.60676 43.3333 5V31.6667C43.3333 34.0599 41.3932 36 39 36H4.99999C2.60676 36 0.666656 34.0599 0.666656 31.6667V5ZM4.99999 2.66666C3.71133 2.66666 2.66666 3.71133 2.66666 5V31.6667C2.66666 32.9553 3.71133 34 4.99999 34H39C40.2887 34 41.3333 32.9553 41.3333 31.6667V5C41.3333 3.71133 40.2887 2.66666 39 2.66666H4.99999Z" fill="#B2B9C4"/>
<ellipse cx="10.6666" cy="10" rx="4.33333" ry="4.33333" fill="#B2B9C4"/>
<path d="M6.33331 28.3333V26.357C6.33331 25.915 6.50891 25.4911 6.82147 25.1785L12.2096 19.7904C12.8387 19.1613 13.8509 19.1372 14.5092 19.7357L15.8405 20.946C16.4921 21.5383 17.4921 21.5216 18.1235 20.9077L27.8217 11.4789C28.4751 10.8436 29.5176 10.851 30.162 11.4954L37.8452 19.1785C38.1577 19.4911 38.3333 19.915 38.3333 20.357V28.3333C38.3333 29.2538 37.5871 30 36.6667 30H7.99998C7.07951 30 6.33331 29.2538 6.33331 28.3333Z" fill="#B2B9C4"/>
</svg>
